<svg id="图层_1" data-name="图层 1" xmlns="http://www.w3.org/2000/svg" viewBox="0 0 216.51038 63.32097"><defs><style>.cls-1{fill:#e0e1e0;}.cls-2{fill:#676766;}</style></defs><path class="cls-1" d="M158.74881,397.12772H73.78674a5.686,5.686,0,0,1-5.66929-5.66929V339.476a5.686,5.686,0,0,1,5.66929-5.66929h84.96207a5.686,5.686,0,0,1,5.66929,5.66929v51.98239A5.686,5.686,0,0,1,158.74881,397.12772Z" transform="translate(-68.11745 -333.80675)"/><path class="cls-2" d="M138.52,345.12064a4.13811,4.13811,0,0,0,0,8.27622h1.37937v2.75874H138.52a4.13811,4.13811,0,1,0,4.13811,4.13811v-1.37937h2.75874v1.37937a4.13812,4.13812,0,1,0,4.13812-4.13811h-1.37937v-2.75874H149.555a4.13811,4.13811,0,1,0-4.13812-4.13811v1.37937H142.6581v-1.37937A4.15928,4.15928,0,0,0,138.52,345.12064Z" transform="translate(-68.11745 -333.80675)"/><path class="cls-1" d="M138.52,347.87938a1.35747,1.35747,0,0,1,1.37937,1.37937v1.37937H138.52a1.37937,1.37937,0,0,1,0-2.75874Z" transform="translate(-68.11745 -333.80675)"/><path class="cls-1" d="M149.555,347.87938a1.37937,1.37937,0,0,1,0,2.75874h-1.37937v-1.37937A1.35747,1.35747,0,0,1,149.555,347.87938Z" transform="translate(-68.11745 -333.80675)"/><rect class="cls-1" x="74.54065" y="19.59011" width="2.75874" height="2.75874"/><path class="cls-1" d="M138.52,358.91434h1.37937v1.37937a1.37937,1.37937,0,1,1-1.37937-1.37937Z" transform="translate(-68.11745 -333.80675)"/><path class="cls-1" d="M148.17559,358.91434H149.555a1.37937,1.37937,0,1,1-1.37937,1.37937Z" transform="translate(-68.11745 -333.80675)"/><path class="cls-2" d="M78.84248,381.24079v-.30818c0-3.23005,1.94128-4.7181,4.44561-4.7181a4.63085,4.63085,0,0,1,2.54048.59874v1.47a5.55977,5.55977,0,0,0-2.55855-.5626c-1.57888,0-2.57663,1.03436-2.57663,2.9761v.47177c0,2.23184.94353,3.17536,2.75783,3.17536a5.44035,5.44035,0,0,0,2.48626-.61681v1.36107a4.87933,4.87933,0,0,1-2.75829.72572C80.5298,385.81384,78.84248,384.30772,78.84248,381.24079Z" transform="translate(-68.11745 -333.80675)"/><path class="cls-2" d="M87.0622,381.22272v-.30818c0-2.94,1.742-4.7,4.31864-4.7,2.68553,0,4.26441,1.72393,4.26441,4.64535v.27249c0,2.93949-1.76054,4.68149-4.28249,4.68149C88.62255,385.81384,87.0622,384.108,87.0622,381.22272Zm6.7136.09083v-.48984c0-2.44965-1.08858-3.17537-2.43111-3.17537-1.56081,0-2.45011,1.0705-2.45011,3.10261v.48984c0,2.45011,1.10711,3.17583,2.48626,3.17583C92.887,384.41662,93.7758,383.34612,93.7758,381.31355Z" transform="translate(-68.11745 -333.80675)"/><path class="cls-2" d="M97.47762,376.39617h1.72393v.79848h.07276a5.15558,5.15558,0,0,1,2.83058-.98014,2.3682,2.3682,0,0,1,2.1957,1.03436h.07275a5.82267,5.82267,0,0,1,3.12115-1.03436,2.25505,2.25505,0,0,1,2.55856,2.54048v6.89526h-1.79669v-6.47771c0-1.01629-.399-1.43383-1.54227-1.43383a4.96374,4.96374,0,0,0-2.10486.59874,3.88912,3.88912,0,0,1,.03614.4903v6.8225h-1.77815v-6.47771c0-1.01629-.38139-1.43383-1.52419-1.43383a4.74763,4.74763,0,0,0-2.08679.58066v7.33088H97.47762Z" transform="translate(-68.11745 -333.80675)"/><path class="cls-2" d="M112.39333,376.39617h1.72393v.79848H114.19a5.15558,5.15558,0,0,1,2.83058-.98014,2.36819,2.36819,0,0,1,2.1957,1.03436h.07276a5.82261,5.82261,0,0,1,3.12115-1.03436,2.255,2.255,0,0,1,2.55855,2.54048v6.89526h-1.79669v-6.47771c0-1.01629-.399-1.43383-1.54227-1.43383a4.96374,4.96374,0,0,0-2.10486.59874,3.889,3.889,0,0,1,.03615.4903v6.8225h-1.77816v-6.47771c0-1.01629-.38139-1.43383-1.52419-1.43383a4.74766,4.74766,0,0,0-2.08679.58066v7.33088h-1.77862Z" transform="translate(-68.11745 -333.80675)"/><path class="cls-2" d="M126.74645,383.18253c0-1.65118,1.089-2.46773,2.88527-2.70361l2.32267-.272v-.79847c0-1.37915-.58067-1.68779-2.21377-1.68779a9.92606,9.92606,0,0,0-2.23184.2725V376.741a7.66106,7.66106,0,0,1,2.93949-.52645c2.08679,0,3.30281.87123,3.30281,2.74022v6.69552h-1.47l-.16312-.77994h-.10891a2.90465,2.90465,0,0,1-2.39543.94353C127.9444,385.81384,126.74645,384.97922,126.74645,383.18253Zm5.20794.72572v-2.46773l-1.9232.19974c-.98014.1089-1.47.50791-1.47,1.47,0,.94353.59874,1.39722,1.5242,1.39722A2.90641,2.90641,0,0,0,131.95439,383.90825Z" transform="translate(-68.11745 -333.80675)"/><path class="cls-2" d="M136.07329,376.39617h1.72393v.79848H137.87a5.7726,5.7726,0,0,1,3.10261-.98014c1.79669,0,2.66746.74426,2.66746,2.54048v6.89526h-1.79623v-6.47771c0-1.01629-.2901-1.43383-1.68778-1.43383a5.6907,5.6907,0,0,0-2.30414.58066v7.33088h-1.77861Z" transform="translate(-68.11745 -333.80675)"/><path class="cls-2" d="M145.491,381.31355v-.23589c0-3.39317,1.72393-4.86315,4.10082-4.86315a4.48556,4.48556,0,0,1,2.3046.56259v-4.37331h1.79669v13.24646h-1.5242l-.16359-.74379h-.09083a3.65414,3.65414,0,0,1-2.64892.90738C147.46884,385.81384,145.491,384.68865,145.491,381.31355Zm6.40542,2.39543v-5.49851a3.46951,3.46951,0,0,0-2.03211-.50791c-1.57888,0-2.54048.79848-2.54048,3.1573v.38093c0,2.43158,1.03436,3.15776,2.55856,3.15776A3.27294,3.27294,0,0,0,151.89638,383.709Z" transform="translate(-68.11745 -333.80675)"/><rect class="cls-2" x="109.90112" y="29.42086" width="29.11515" height="4.47925" rx="2.23962"/><rect class="cls-2" x="178.01857" y="363.22761" width="29.11515" height="4.47925" rx="2.23962" transform="translate(-241.00854 224.23663) rotate(-90)"/><rect class="cls-1" x="153.1895" y="0.00005" width="63.32088" height="63.32088" rx="5.66929"/><path class="cls-2" d="M247.288,367.60486v-.41993c0-5.501,3.29639-7.32763,6.92871-7.32763a8.04018,8.04018,0,0,1,3.84229.86084v1.80566a8.69007,8.69007,0,0,0-3.88428-.86084c-3.48535,0-4.57715,2.49854-4.57715,5.249v.67188c0,3.10742.88184,5.354,4.47217,5.354a7.36571,7.36571,0,0,0,2.43555-.35693v-3.52734h-2.87647v-1.72168h5.01807v6.52978a12.18915,12.18915,0,0,1-4.59815.86084C249.95445,374.72253,247.288,372.60193,247.288,367.60486Z" transform="translate(-68.11745 -333.80675)"/></svg>