<svg xmlns="http://www.w3.org/2000/svg" viewBox="0 0 216.51038 145.01604"><defs><style>.cls-1{fill:#e0e1e0;}.cls-2{fill:#676766;}</style></defs><g id="图层_2" data-name="图层 2"><g id="图层_1-2" data-name="图层 1"><path class="cls-1" d="M90.63135,63.321H5.66929A5.686,5.686,0,0,1,0,57.65168V5.66929A5.686,5.686,0,0,1,5.66929,0H90.63135a5.686,5.686,0,0,1,5.6693,5.66929V57.65168A5.686,5.686,0,0,1,90.63135,63.321Z"/><path class="cls-2" d="M70.40254,11.31388a4.13812,4.13812,0,0,0,0,8.27623h1.37937v2.75874H70.40254A4.13811,4.13811,0,1,0,74.54065,26.487V25.10759h2.75874V26.487a4.13812,4.13812,0,1,0,4.13811-4.13811H80.05813V19.59011H81.4375A4.13812,4.13812,0,1,0,77.29939,15.452v1.37937H74.54065V15.452A4.15929,4.15929,0,0,0,70.40254,11.31388Z"/><path class="cls-1" d="M70.40254,14.07263A1.35747,1.35747,0,0,1,71.78191,15.452v1.37937H70.40254a1.37937,1.37937,0,0,1,0-2.75874Z"/><path class="cls-1" d="M81.4375,14.07263a1.37937,1.37937,0,0,1,0,2.75874H80.05813V15.452A1.35747,1.35747,0,0,1,81.4375,14.07263Z"/><rect class="cls-1" x="74.54065" y="19.59011" width="2.75874" height="2.75874"/><path class="cls-1" d="M70.40254,25.10759h1.37937V26.487a1.37937,1.37937,0,1,1-1.37937-1.37937Z"/><path class="cls-1" d="M80.05813,25.10759H81.4375A1.37937,1.37937,0,1,1,80.05813,26.487Z"/><path class="cls-2" d="M10.725,47.434v-.30818c0-3.23005,1.94128-4.7181,4.44561-4.7181a4.63085,4.63085,0,0,1,2.54048.59874v1.47a5.55977,5.55977,0,0,0-2.55855-.5626c-1.57888,0-2.57663,1.03436-2.57663,2.9761v.47176c0,2.23184.94353,3.17537,2.75783,3.17537A5.44035,5.44035,0,0,0,17.82,49.9203v1.36107a4.87933,4.87933,0,0,1-2.75829.72572C12.41235,52.00709,10.725,50.501,10.725,47.434Z"/><path class="cls-2" d="M18.94475,47.416v-.30817c0-2.94,1.742-4.7,4.31863-4.7,2.68554,0,4.26442,1.72393,4.26442,4.64534v.2725c0,2.93948-1.76054,4.68149-4.28249,4.68149C20.5051,52.00709,18.94475,50.30123,18.94475,47.416Zm6.7136.09083V47.017c0-2.44965-1.08858-3.17537-2.43111-3.17537-1.56081,0-2.45012,1.0705-2.45012,3.10261V47.434c0,2.45011,1.10712,3.17583,2.48626,3.17583C24.76951,50.60987,25.65835,49.53936,25.65835,47.50679Z"/><path class="cls-2" d="M29.36017,42.58942H31.0841v.79848h.07276a5.15558,5.15558,0,0,1,2.83058-.98014,2.36818,2.36818,0,0,1,2.1957,1.03436h.07275A5.82264,5.82264,0,0,1,39.377,42.40776a2.255,2.255,0,0,1,2.55856,2.54048V51.8435H40.13891V45.36578c0-1.01628-.399-1.43383-1.54227-1.43383a4.96372,4.96372,0,0,0-2.10486.59875,3.889,3.889,0,0,1,.03614.4903v6.8225H34.74977V45.36578c0-1.01628-.3814-1.43383-1.5242-1.43383a4.74758,4.74758,0,0,0-2.08679.58067V51.8435H29.36017Z"/><path class="cls-2" d="M44.27588,42.58942h1.72393v.79848h.07276a5.15558,5.15558,0,0,1,2.83058-.98014,2.36818,2.36818,0,0,1,2.1957,1.03436h.07275a5.82267,5.82267,0,0,1,3.12115-1.03436,2.255,2.255,0,0,1,2.55856,2.54048V51.8435H55.05462V45.36578c0-1.01628-.399-1.43383-1.54227-1.43383a4.96376,4.96376,0,0,0-2.10486.59875,3.889,3.889,0,0,1,.03614.4903v6.8225H49.66548V45.36578c0-1.01628-.38139-1.43383-1.52419-1.43383a4.74751,4.74751,0,0,0-2.08679.58067V51.8435H44.27588Z"/><path class="cls-2" d="M58.629,49.37578c0-1.65118,1.089-2.46773,2.88526-2.70361l2.32268-.272v-.79848c0-1.37914-.58067-1.68778-2.21377-1.68778a9.92672,9.92672,0,0,0-2.23184.27249V42.93421a7.661,7.661,0,0,1,2.93948-.52645c2.0868,0,3.30282.87123,3.30282,2.74021V51.8435h-1.47l-.16312-.77994h-.10891a2.90468,2.90468,0,0,1-2.39543.94353C59.82694,52.00709,58.629,51.17246,58.629,49.37578Zm5.20794.72572V47.63377l-1.92321.19974c-.98013.1089-1.47.50791-1.47,1.47,0,.94353.59874,1.39722,1.5242,1.39722A2.90643,2.90643,0,0,0,63.83694,50.1015Z"/><path class="cls-2" d="M67.95584,42.58942h1.72393v.79848h.07275a5.77266,5.77266,0,0,1,3.10262-.98014c1.79668,0,2.66746.74425,2.66746,2.54048V51.8435H73.72637V45.36578c0-1.01628-.2901-1.43383-1.68778-1.43383a5.6907,5.6907,0,0,0-2.30414.58067V51.8435H67.95584Z"/><path class="cls-2" d="M77.3735,47.50679v-.23588c0-3.39318,1.72394-4.86315,4.10083-4.86315a4.48556,4.48556,0,0,1,2.3046.56259V38.597h1.79669V51.8435h-1.5242l-.16359-.74379H83.797a3.65414,3.65414,0,0,1-2.64892.90738C79.35139,52.00709,77.3735,50.8819,77.3735,47.50679Zm6.40543,2.39543v-5.4985a3.46951,3.46951,0,0,0-2.03211-.50791c-1.57888,0-2.54048.79847-2.54048,3.15729V47.434c0,2.43157,1.03436,3.15776,2.55855,3.15776A3.27291,3.27291,0,0,0,83.77893,49.90222Z"/><rect class="cls-2" x="109.90112" y="30.24316" width="29.11515" height="2.83465" rx="1.41732"/><rect class="cls-2" x="109.90112" y="30.24316" width="29.11515" height="2.83465" rx="1.41732" transform="translate(92.79821 156.11918) rotate(-90)"/><rect class="cls-2" x="109.90112" y="111.93828" width="29.11515" height="2.83465" rx="1.41732"/><rect class="cls-2" x="109.90112" y="111.93828" width="29.11515" height="2.83465" rx="1.41732" transform="translate(11.1031 237.8143) rotate(-90)"/><rect class="cls-1" x="153.1895" y="0.00005" width="63.32088" height="63.32088" rx="5.66929"/><path class="cls-2" d="M179.1705,33.7981v-.41992c0-5.501,3.29639-7.32764,6.92871-7.32764a8.04026,8.04026,0,0,1,3.84228.86084v1.80567a8.69,8.69,0,0,0-3.88427-.86084c-3.48535,0-4.57715,2.49853-4.57715,5.249v.67188c0,3.10742.88184,5.354,4.47217,5.354a7.36587,7.36587,0,0,0,2.43554-.35693V35.24683h-2.87646V33.52515h5.01807v6.52979a12.18934,12.18934,0,0,1-4.59815.86084C181.837,40.91578,179.1705,38.79517,179.1705,33.7981Z"/><rect class="cls-1" x="153.1895" y="81.69516" width="63.32088" height="63.32088" rx="5.66929"/><path class="cls-2" d="M179.1705,115.49322v-.41992c0-5.501,3.29639-7.32764,6.92871-7.32764a8.04014,8.04014,0,0,1,3.84228.86084v1.80566a8.69,8.69,0,0,0-3.88427-.86084c-3.48535,0-4.57715,2.49854-4.57715,5.249v.67187c0,3.10742.88184,5.354,4.47217,5.354a7.36559,7.36559,0,0,0,2.43554-.35694V116.942h-2.87646v-1.72168h5.01807v6.52978a12.18915,12.18915,0,0,1-4.59815.86084C181.837,122.61089,179.1705,120.49029,179.1705,115.49322Z"/><rect class="cls-1" x="32.97976" y="81.69516" width="63.32088" height="63.32088" rx="5.66929"/><path class="cls-2" d="M66.082,92.61923a1.25917,1.25917,0,0,0-.03562,2.51808q.01782.00024.03562,0h2.78611l4.7214,8.81327H84.9676a1.25917,1.25917,0,1,0,.03561-2.51808q-.01781-.00026-.03561,0H75.09693l-4.72139-8.81327Z"/><path class="cls-2" d="M74.34446,92.61923a1.25917,1.25917,0,1,0-.03561,2.51808q.0178.00024.03561,0H84.9676a1.25917,1.25917,0,1,0,.03561-2.51808q-.01781-.00025-.03561,0Z"/><path class="cls-2" d="M54.0395,131.40126v-.20411a2.78733,2.78733,0,0,1,2.85449-3.10644c1.7749,0,2.81836,1.13965,2.81836,3.07031v.17969a2.7784,2.7784,0,0,1-2.83008,3.09473C55.07123,134.43544,54.0395,133.30751,54.0395,131.40126Zm4.4375.05957v-.32422c0-1.61914-.71924-2.09864-1.60694-2.09864-1.03125,0-1.61914.708-1.61914,2.05079v.32421c0,1.61915.73145,2.09864,1.64307,2.09864C57.88959,133.51161,58.477,132.8036,58.477,131.46083Z"/><path class="cls-2" d="M60.92719,128.21083h1.13965v.49121h.04785a2.60571,2.60571,0,0,1,1.751-.61133c1.331,0,2.49463.73144,2.49463,2.98633v.168c0,2.2666-1.07959,3.11816-2.7583,3.11816a3.045,3.045,0,0,1-1.49952-.35938v2.12208H60.92719Zm4.19775,3.19043v-.252c0-1.5957-.57568-2.06347-1.60693-2.06347a2.45455,2.45455,0,0,0-1.41553.39648v3.57324a2.3957,2.3957,0,0,0,1.35547.38379C64.51313,133.43934,65.12494,132.95985,65.12494,131.40126Z"/><path class="cls-2" d="M67.935,132.85243v-3.69434h-.86377v-.94726H67.935v-1.43946h1.1875v1.43946h1.4751v.94726H69.1225v3.52637c0,.55176.17969.75488.83936.75488a5.1751,5.1751,0,0,0,.75537-.07129v.791a2.38111,2.38111,0,0,1-1.09131.22851C68.60639,134.38758,67.935,133.96766,67.935,132.85243Z"/><path class="cls-2" d="M71.895,125.91981h1.19971v1.15137H71.895Zm.01221,2.291h1.17529V134.327H71.90717Z"/><path class="cls-2" d="M74.35541,131.40126v-.20411a2.78734,2.78734,0,0,1,2.8545-3.10644c1.7749,0,2.81836,1.13965,2.81836,3.07031v.17969a2.7784,2.7784,0,0,1-2.83008,3.09473C75.38715,134.43544,74.35541,133.30751,74.35541,131.40126Zm4.4375.05957v-.32422c0-1.61914-.71923-2.09864-1.60693-2.09864-1.03125,0-1.61914.708-1.61914,2.05079v.32421c0,1.61915.73144,2.09864,1.64307,2.09864C78.20551,133.51161,78.79291,132.8036,78.79291,131.46083Z"/><path class="cls-2" d="M81.24311,128.21083h1.13965v.52734h.04785a3.81958,3.81958,0,0,1,2.05078-.64746c1.1875,0,1.76318.49121,1.76318,1.67871V134.327h-1.1875v-4.28125c0-.67188-.19189-.94727-1.11523-.94727a3.75571,3.75571,0,0,0-1.52344.38379V134.327H81.24311Z"/></g></g></svg>