<svg xmlns="http://www.w3.org/2000/svg" viewBox="0 0 216.51038 145.01604"><defs><style>.cls-1{fill:#e0e1e0;}.cls-2{fill:#676766;}</style></defs><g id="图层_2" data-name="图层 2"><g id="图层_1-2" data-name="图层 1"><path class="cls-1" d="M90.63135,63.321H5.66929A5.686,5.686,0,0,1,0,57.65168V5.66929A5.686,5.686,0,0,1,5.66929,0H90.63135a5.686,5.686,0,0,1,5.6693,5.66929V57.65168A5.686,5.686,0,0,1,90.63135,63.321Z"/><path class="cls-2" d="M70.40254,11.31388a4.13812,4.13812,0,0,0,0,8.27623h1.37937v2.75874H70.40254A4.13811,4.13811,0,1,0,74.54065,26.487V25.10759h2.75874V26.487a4.13812,4.13812,0,1,0,4.13811-4.13811H80.05813V19.59011H81.4375A4.13812,4.13812,0,1,0,77.29939,15.452v1.37937H74.54065V15.452A4.15929,4.15929,0,0,0,70.40254,11.31388Z"/><path class="cls-1" d="M70.40254,14.07263A1.35747,1.35747,0,0,1,71.78191,15.452v1.37937H70.40254a1.37937,1.37937,0,0,1,0-2.75874Z"/><path class="cls-1" d="M81.4375,14.07263a1.37937,1.37937,0,0,1,0,2.75874H80.05813V15.452A1.35747,1.35747,0,0,1,81.4375,14.07263Z"/><rect class="cls-1" x="74.54065" y="19.59011" width="2.75874" height="2.75874"/><path class="cls-1" d="M70.40254,25.10759h1.37937V26.487a1.37937,1.37937,0,1,1-1.37937-1.37937Z"/><path class="cls-1" d="M80.05813,25.10759H81.4375A1.37937,1.37937,0,1,1,80.05813,26.487Z"/><path class="cls-2" d="M17.82,47.86751v-.279c0-2.92388,1.75726-4.27088,4.02421-4.27088a4.19192,4.19192,0,0,1,2.29967.542v1.33064a5.03286,5.03286,0,0,0-2.316-.50926c-1.42922,0-2.33239.93631-2.33239,2.694v.42705c0,2.02029.85409,2.87438,2.49641,2.87438a4.92471,4.92471,0,0,0,2.2506-.55835v1.23206a4.41689,4.41689,0,0,1-2.49684.65693C19.34741,52.00709,17.82,50.64373,17.82,47.86751Z"/><path class="cls-2" d="M25.26061,47.85115v-.279c0-2.66128,1.57688-4.25452,3.90928-4.25452,2.431,0,3.86019,1.56052,3.86019,4.205v.24666c0,2.66086-1.59366,4.23774-3.87655,4.23774C26.67305,52.00709,25.26061,50.46293,25.26061,47.85115Zm6.07723.08222V47.49c0-2.21746-.9854-2.87439-2.20068-2.87439-1.41285,0-2.21787.969-2.21787,2.80852v.44341c0,2.21787,1.00218,2.8748,2.2506,2.8748C30.53324,50.74231,31.33784,49.77328,31.33784,47.93337Z"/><path class="cls-2" d="M34.68876,43.48211h1.56052v.72279h.06587a4.66686,4.66686,0,0,1,2.56227-.88723A2.14371,2.14371,0,0,1,40.865,44.254h.06586a5.2707,5.2707,0,0,1,2.8253-.93631,2.04129,2.04129,0,0,1,2.316,2.29967V51.859H44.4458V45.9953c0-.91995-.36119-1.29791-1.39608-1.29791a4.4933,4.4933,0,0,0-1.90535.542,3.52015,3.52015,0,0,1,.03272.44383V51.859h-1.6096V45.9953c0-.91995-.34524-1.29791-1.37972-1.29791a4.29754,4.29754,0,0,0-1.889.52562v6.636h-1.61Z"/><path class="cls-2" d="M48.19063,43.48211h1.56052v.72279H49.817a4.66692,4.66692,0,0,1,2.56228-.88723,2.14371,2.14371,0,0,1,1.98757.93631h.06586a5.2707,5.2707,0,0,1,2.8253-.93631,2.04129,2.04129,0,0,1,2.316,2.29967V51.859H57.94767V45.9953c0-.91995-.36119-1.29791-1.39608-1.29791a4.4933,4.4933,0,0,0-1.90535.542,3.52015,3.52015,0,0,1,.03272.44383V51.859h-1.6096V45.9953c0-.91995-.34524-1.29791-1.37972-1.29791a4.29762,4.29762,0,0,0-1.889.52562v6.636h-1.61Z"/><path class="cls-2" d="M61.18323,49.6252c0-1.49467.98582-2.23382,2.61178-2.44734l2.10251-.24624v-.72279c0-1.24842-.52563-1.5278-2.00393-1.5278a8.98588,8.98588,0,0,0-2.02029.24666V43.79421a6.935,6.935,0,0,1,2.66086-.47654c1.889,0,2.98974.78865,2.98974,2.48047V51.859H66.19326l-.14766-.706H65.947a2.62936,2.62936,0,0,1-2.16837.85409A2.27959,2.27959,0,0,1,61.18323,49.6252Zm4.71429.65692V48.04831l-1.7409.18081c-.88724.09858-1.33064.45976-1.33064,1.33063,0,.8541.542,1.26478,1.37972,1.26478A2.63084,2.63084,0,0,0,65.89752,50.28212Z"/><path class="cls-2" d="M69.626,43.48211h1.56052v.72279h.06587a5.22541,5.22541,0,0,1,2.80852-.88723c1.62638,0,2.41461.67371,2.41461,2.29967V51.859h-1.626V45.9953c0-.91995-.26261-1.29791-1.52781-1.29791A5.15116,5.15116,0,0,0,71.236,45.223v6.636h-1.61Z"/><path class="cls-2" d="M78.151,47.93337v-.21352c0-3.07154,1.56052-4.40218,3.71211-4.40218a4.06033,4.06033,0,0,1,2.08615.50926V39.86816h1.62639V51.859H84.1959l-.14809-.67329h-.08222a3.30777,3.30777,0,0,1-2.39783.82137C79.94138,52.00709,78.151,50.98855,78.151,47.93337Zm5.79826,2.16837V45.12443a3.14066,3.14066,0,0,0-1.83948-.45976c-1.42922,0-2.29967.72279-2.29967,2.858v.34482c0,2.20109.93631,2.85844,2.316,2.85844A2.96264,2.96264,0,0,0,83.94923,50.10174Z"/><rect class="cls-2" x="109.90112" y="30.24316" width="29.11515" height="2.83465" rx="1.41732"/><rect class="cls-2" x="109.90112" y="30.24316" width="29.11515" height="2.83465" rx="1.41732" transform="translate(92.79821 156.11918) rotate(-90)"/><rect class="cls-2" x="109.90112" y="111.93828" width="29.11515" height="2.83465" rx="1.41732"/><rect class="cls-2" x="109.90112" y="111.93828" width="29.11515" height="2.83465" rx="1.41732" transform="translate(11.1031 237.8143) rotate(-90)"/><rect class="cls-1" x="153.1895" y="0.00005" width="63.32088" height="63.32088" rx="5.66929"/><path class="cls-2" d="M179.1705,33.7981v-.41992c0-5.501,3.29639-7.32764,6.92871-7.32764a8.04026,8.04026,0,0,1,3.84228.86084v1.80567a8.69,8.69,0,0,0-3.88427-.86084c-3.48535,0-4.57715,2.49853-4.57715,5.249v.67188c0,3.10742.88184,5.354,4.47217,5.354a7.36587,7.36587,0,0,0,2.43554-.35693V35.24683h-2.87646V33.52515h5.01807v6.52979a12.18934,12.18934,0,0,1-4.59815.86084C181.837,40.91578,179.1705,38.79517,179.1705,33.7981Z"/><rect class="cls-1" x="153.1895" y="81.69516" width="63.32088" height="63.32088" rx="5.66929"/><path class="cls-2" d="M179.1705,115.49322v-.41992c0-5.501,3.29639-7.32764,6.92871-7.32764a8.04014,8.04014,0,0,1,3.84228.86084v1.80566a8.69,8.69,0,0,0-3.88427-.86084c-3.48535,0-4.57715,2.49854-4.57715,5.249v.67187c0,3.10742.88184,5.354,4.47217,5.354a7.36559,7.36559,0,0,0,2.43554-.35694V116.942h-2.87646v-1.72168h5.01807v6.52978a12.18915,12.18915,0,0,1-4.59815.86084C181.837,122.61089,179.1705,120.49029,179.1705,115.49322Z"/><rect class="cls-1" x="32.97976" y="81.69516" width="63.32088" height="63.32088" rx="5.66929"/><path class="cls-2" d="M66.082,92.61923a1.25917,1.25917,0,0,0-.03562,2.51808q.01782.00024.03562,0h2.78611l4.7214,8.81327H84.9676a1.25917,1.25917,0,1,0,.03561-2.51808q-.01781-.00026-.03561,0H75.09693l-4.72139-8.81327Z"/><path class="cls-2" d="M74.34446,92.61923a1.25917,1.25917,0,1,0-.03561,2.51808q.0178.00024.03561,0H84.9676a1.25917,1.25917,0,1,0,.03561-2.51808q-.01781-.00025-.03561,0Z"/><path class="cls-2" d="M44.27588,129.9689v-.266c0-2.53253,1.50043-4.04823,3.71989-4.04823,2.313,0,3.6728,1.48516,3.6728,4.00114V129.89c0,2.53253-1.5157,4.033-3.68807,4.033C45.62041,133.92295,44.27588,132.45306,44.27588,129.9689Zm5.78282.07763V129.624c0-2.11-.93729-2.73487-2.09411-2.73487-1.34389,0-2.11.92265-2.11,2.67251v.42252c0,2.11.9532,2.73487,2.1412,2.73487C49.29321,132.719,50.0587,131.79639,50.0587,130.04653Z"/><path class="cls-2" d="M53.25172,125.81122h1.48515v.64013h.06236a3.39574,3.39574,0,0,1,2.28182-.79666c1.73459,0,3.25093.9532,3.25093,3.89169v.2189c0,2.95376-1.40689,4.06349-3.59454,4.06349a3.96825,3.96825,0,0,1-1.95411-.46832v2.76542H53.25172Zm5.47039,4.15768v-.32834c0-2.07947-.75022-2.68906-2.09411-2.68906a3.19865,3.19865,0,0,0-1.84467.51668v4.65655a3.12207,3.12207,0,0,0,1.7664.50014C57.92481,132.62487,58.72211,132,58.72211,129.9689Z"/><path class="cls-2" d="M62.38409,131.86v-4.81435H61.25845v-1.23445h1.12564v-1.87585H63.9316v1.87585h1.92231v1.23445H63.9316v4.59546c0,.719.23417.98374,1.09383.98374a6.7461,6.7461,0,0,0,.98437-.0929v1.03082a3.10287,3.10287,0,0,1-1.42216.2978C63.259,133.86059,62.38409,133.31336,62.38409,131.86Z"/><path class="cls-2" d="M67.54459,122.82564H69.108v1.50043H67.54459Zm.01591,2.98558h1.53161v7.97047H67.5605Z"/><path class="cls-2" d="M70.751,129.9689v-.266c0-2.53253,1.50042-4.04823,3.71989-4.04823,2.313,0,3.6728,1.48516,3.6728,4.00114V129.89c0,2.53253-1.5157,4.033-3.68808,4.033C72.09551,133.92295,70.751,132.45306,70.751,129.9689Zm5.78281.07763V129.624c0-2.11-.93729-2.73487-2.0941-2.73487-1.3439,0-2.11.92265-2.11,2.67251v.42252c0,2.11.9532,2.73487,2.1412,2.73487C75.76831,132.719,76.53379,131.79639,76.53379,130.04653Z"/><path class="cls-2" d="M79.72681,125.81122H81.212v.68722h.06236a4.9777,4.9777,0,0,1,2.67252-.84375c1.54751,0,2.29772.64013,2.29772,2.18765v5.93935H84.69706v-5.5792c0-.87557-.25007-1.23445-1.45334-1.23445a4.89427,4.89427,0,0,0-1.9853.50014v6.31351H79.72681Z"/></g></g></svg>