<svg xmlns="http://www.w3.org/2000/svg" xmlns:xlink="http://www.w3.org/1999/xlink" viewBox="0 0 247.83809 159.1775"><defs><style>.cls-1{fill:url(#未命名的渐变_3);}.cls-2{fill:url(#未命名的渐变_3-2);}.cls-3{fill:url(#未命名的渐变_3-3);}.cls-4{fill:url(#未命名的渐变_3-4);}</style><linearGradient id="未命名的渐变_3" y1="38.0379" x2="140.33046" y2="38.0379" gradientUnits="userSpaceOnUse"><stop offset="0" stop-color="#f4d32e"/><stop offset="1" stop-color="#f4b21a"/></linearGradient><linearGradient id="未命名的渐变_3-2" y1="121.38275" x2="140.2295" y2="121.38275" xlink:href="#未命名的渐变_3"/><linearGradient id="未命名的渐变_3-3" x1="80.633" y1="79.58875" x2="157.07446" y2="79.58875" xlink:href="#未命名的渐变_3"/><linearGradient id="未命名的渐变_3-4" x1="171.39664" y1="79.58875" x2="247.83809" y2="79.58875" xlink:href="#未命名的渐变_3"/></defs><g id="图层_2" data-name="图层 2"><g id="图层_1-2" data-name="图层 1"><path class="cls-1" d="M140.33046,27.33513C125.37972,11.63024,104.07152.22189,80.178.00409,41.08806-.36154,5.14019,23.80065,0,76.0758H50.37346L79.43127,27.33908l58.51552-.02332Z"/><path class="cls-2" d="M140.2295,132.43338c-14.951,15.70487-36.158,26.52232-60.05155,26.74012C41.08806,159.53122,5.14019,135.86265,0,83.588H50.37346l29.07319,48.86075h58.39919Z"/><path class="cls-3" d="M157.07446,79.586,137.96194,47.54634H99.74265L80.633,79.586l19.10965,32.04519h38.21929Zm-58.69762,0c0-10.87841,9.16712-19.69986,20.47832-19.69986,11.30835,0,20.47545,8.82145,20.47545,19.69986,0,10.88414-9.1671,19.70272-20.47545,19.70272C107.544,99.28869,98.37684,90.47011,98.37684,79.586Z"/><path class="cls-4" d="M247.83809,79.586,228.72557,47.54634H190.50628L171.39664,79.586l19.10964,32.04519h38.21929Zm-58.69761,0c0-10.87841,9.16711-19.69986,20.47832-19.69986,11.30834,0,20.47545,8.82145,20.47545,19.69986,0,10.88414-9.16711,19.70272-20.47545,19.70272C198.30759,99.28869,189.14048,90.47011,189.14048,79.586Z"/></g></g></svg>