<svg xmlns="http://www.w3.org/2000/svg" xmlns:xlink="http://www.w3.org/1999/xlink" viewBox="0 0 525.30514 153.1568"><defs><style>.cls-1{fill:url(#未命名的渐变_3);}.cls-2{fill:url(#未命名的渐变_3-2);}.cls-3{fill:url(#未命名的渐变_3-3);}.cls-4{fill:url(#未命名的渐变_3-4);}.cls-5{fill:url(#未命名的渐变_3-5);}.cls-6{fill:url(#未命名的渐变_3-6);}.cls-7{fill:url(#未命名的渐变_3-7);}.cls-8{fill:url(#未命名的渐变_3-8);}.cls-9{fill:url(#未命名的渐变_3-9);}.cls-10{fill:url(#未命名的渐变_3-10);}.cls-11{fill:url(#未命名的渐变_3-11);}.cls-12{fill:url(#未命名的渐变_3-12);}.cls-13{fill:url(#未命名的渐变_3-13);}.cls-14{fill:url(#未命名的渐变_3-14);}.cls-15{fill:url(#未命名的渐变_3-15);}.cls-16{fill:url(#未命名的渐变_3-16);}.cls-17{fill:url(#未命名的渐变_3-17);}.cls-18{fill:url(#未命名的渐变_3-18);}.cls-19{fill:url(#未命名的渐变_3-19);}.cls-20{fill:url(#未命名的渐变_3-20);}.cls-21{fill:url(#未命名的渐变_3-21);}</style><linearGradient id="未命名的渐变_3" x1="494.30972" y1="63.70451" x2="525.30514" y2="63.70451" gradientUnits="userSpaceOnUse"><stop offset="0" stop-color="#f4d32e"/><stop offset="1" stop-color="#f4b21a"/></linearGradient><linearGradient id="未命名的渐变_3-2" x1="0" y1="36.59916" x2="135.02263" y2="36.59916" xlink:href="#未命名的渐变_3"/><linearGradient id="未命名的渐变_3-3" x1="0" y1="116.7916" x2="134.92549" y2="116.7916" xlink:href="#未命名的渐变_3"/><linearGradient id="未命名的渐变_3-4" x1="77.58316" y1="76.5784" x2="151.13331" y2="76.5784" xlink:href="#未命名的渐变_3"/><linearGradient id="未命名的渐变_3-5" x1="164.91377" y1="76.5784" x2="238.46392" y2="76.5784" xlink:href="#未命名的渐变_3"/><linearGradient id="未命名的渐变_3-6" x1="259.90283" y1="58.27536" x2="298.93815" y2="58.27536" xlink:href="#未命名的渐变_3"/><linearGradient id="未命名的渐变_3-7" x1="305.25901" y1="64.35708" x2="335.84099" y2="64.35708" xlink:href="#未命名的渐变_3"/><linearGradient id="未命名的渐变_3-8" x1="343.87948" y1="63.70451" x2="374.8749" y2="63.70451" xlink:href="#未命名的渐变_3"/><linearGradient id="未命名的渐变_3-9" x1="379.20187" y1="68.82453" x2="414.38896" y2="68.82453" xlink:href="#未命名的渐变_3"/><linearGradient id="未命名的渐变_3-10" x1="417.34126" y1="64.04795" x2="449.36744" y2="64.04795" xlink:href="#未命名的渐变_3"/><linearGradient id="未命名的渐变_3-11" x1="453.69536" y1="64.01365" x2="488.12698" y2="64.01365" xlink:href="#未命名的渐变_3"/><linearGradient id="未命名的渐变_3-12" x1="259.90283" y1="108.2412" x2="282.60291" y2="108.2412" xlink:href="#未命名的渐变_3"/><linearGradient id="未命名的渐变_3-13" x1="410.50403" y1="108.2412" x2="433.20337" y2="108.2412" xlink:href="#未命名的渐变_3"/><linearGradient id="未命名的渐变_3-14" x1="434.94211" y1="108.24781" x2="453.47412" y2="108.24781" xlink:href="#未命名的渐变_3"/><linearGradient id="未命名的渐变_3-15" x1="280.17351" y1="108.22913" x2="305.09452" y2="108.22913" xlink:href="#未命名的渐变_3"/><linearGradient id="未命名的渐变_3-16" x1="348.5476" y1="108.22913" x2="373.4686" y2="108.22913" xlink:href="#未命名的渐变_3"/><linearGradient id="未命名的渐变_3-17" x1="307.45442" y1="108.2412" x2="315.31732" y2="108.2412" xlink:href="#未命名的渐变_3"/><linearGradient id="未命名的渐变_3-18" x1="318.13024" y1="108.20605" x2="351.4029" y2="108.20605" xlink:href="#未命名的渐变_3"/><linearGradient id="未命名的渐变_3-19" x1="376.17462" y1="108.23354" x2="396.87778" y2="108.23354" xlink:href="#未命名的渐变_3"/><linearGradient id="未命名的渐变_3-20" x1="478.96219" y1="108.2412" x2="500.38835" y2="108.2412" xlink:href="#未命名的渐变_3"/><linearGradient id="未命名的渐变_3-21" x1="454.59361" y1="108.22275" x2="476.41055" y2="108.22275" xlink:href="#未命名的渐变_3"/></defs><g id="图层_2" data-name="图层 2"><g id="图层_1-2" data-name="图层 1"><path class="cls-1" d="M494.30972,46.24816h8.65958V49.41h.34391A19.75929,19.75929,0,0,1,514.927,45.56129c6.80383,0,10.37817,2.81794,10.37817,9.89613V81.84774h-9.07209V57.58849c0-3.36761-1.23748-4.74229-5.63587-4.74229a20.62952,20.62952,0,0,0-7.284,1.78717V81.84774h-9.00349Z"/><path class="cls-2" d="M135.02263,26.30121C120.63738,11.19034,100.13514.2135,77.14532.00393,39.534-.34787,4.94577,22.90042,0,73.19832H48.46814L76.42688,26.305l56.30224-.02244Z"/><path class="cls-3" d="M134.92549,127.42425C120.54,142.5351,100.13514,152.94339,77.14532,153.153,39.534,153.49714,4.94577,130.72381,0,80.42639H48.46814L76.44168,127.439H132.632Z"/><path class="cls-4" d="M151.13331,76.57573,132.7437,45.748H95.97L77.58316,76.57573,95.97,107.40885h36.7737Zm-56.47745,0c0-10.46695,8.82038-18.95474,19.70375-18.95474,10.88062,0,19.701,8.48779,19.701,18.95474,0,10.47246-8.82037,18.95749-19.701,18.95749C103.47624,95.53322,94.65586,87.04819,94.65586,76.57573Z"/><path class="cls-5" d="M238.46392,76.57573,220.07431,45.748h-36.7737L164.91377,76.57573l18.38684,30.83312h36.7737Zm-56.47745,0c0-10.46695,8.82038-18.95474,19.70375-18.95474,10.88062,0,19.701,8.48779,19.701,18.95474,0,10.47246-8.82037,18.95749-19.701,18.95749C190.80685,95.53322,181.98647,87.04819,181.98647,76.57573Z"/><path class="cls-6" d="M259.90283,34.703h16.14981c14.56982,0,22.88551,6.80383,22.88551,22.40443v1.37373c0,15.32622-7.766,23.3666-22.816,23.3666H259.90283ZM276.12217,74.357c8.59005,0,12.50735-4.124,12.50735-15.05091V56.96928c0-11.47658-4.74229-14.91279-13.058-14.91279H269.6613V74.357Z"/><path class="cls-7" d="M305.259,72.15738V46.24816h9.00255v24.0544c0,3.642,1.30607,5.08525,5.42915,5.08525a15.56766,15.56766,0,0,0,7.14773-2.06153V46.24816H335.841V81.84774h-7.766l-.82406-3.1609h-.3439A17.1644,17.1644,0,0,1,316.04872,82.466C309.2449,82.466,305.259,79.16793,305.259,72.15738Z"/><path class="cls-8" d="M343.87948,46.24816h8.65959V49.41h.3439a19.75929,19.75929,0,0,1,11.61377-3.84871c6.80382,0,10.37816,2.81794,10.37816,9.89613V81.84774h-9.07208V57.58849c0-3.36761-1.23749-4.74229-5.63588-4.74229a20.62957,20.62957,0,0,0-7.284,1.78717V81.84774h-9.00349Z"/><path class="cls-9" d="M379.20187,83.84068c0-3.71058,2.95512-5.84165,6.66664-7.0096v-.34391c-2.19966-.89358-3.71152-2.19872-3.71152-4.87947,0-2.67981,1.44327-3.77917,4.19261-5.91024-2.88653-1.71764-4.53557-4.2612-4.53557-8.45287V56.7635c0-7.49069,5.84165-11.13362,14.5003-11.13362a25.43269,25.43269,0,0,1,5.84165.61828h12.16438v5.56728H408.9598a6.328,6.328,0,0,1,1.71858,4.67275v.54968c0,7.62882-6.04837,10.85925-14.36405,10.85925a19.51584,19.51584,0,0,1-5.49775-.61921c-.68687.61921-1.03077.89358-1.03077,1.65,0,1.71764.75546,1.78623,2.95512,1.78623h9.89613c7.01055,0,11.7519,2.475,11.7519,9.34739,0,7.14679-5.70353,11.95767-18.4176,11.95767C384.49384,92.01918,379.20187,89.13265,379.20187,83.84068Zm25.97782-2.26731c0-2.61216-1.168-3.09325-5.22244-3.09325h-8.72818c-1.85576.61921-3.23043,1.78717-3.23043,3.98589,0,2.54357,1.99295,3.50574,7.8346,3.50574C402.84378,85.97175,405.17969,84.45989,405.17969,81.57337ZM402.01879,57.176v-.7564c0-4.05448-2.26825-5.15384-5.70446-5.15384-3.77918,0-5.84165,1.44326-5.84165,5.01665v.825c0,3.91729,2.19966,5.291,5.84165,5.291C399.88866,62.39843,402.01879,61.0247,402.01879,57.176Z"/><path class="cls-10" d="M417.34126,64.46091v-.89358c0-11.75189,7.07914-17.93745,16.7009-17.93745,10.78971,0,15.32528,6.117,15.32528,17.52495v3.299H426.55053c.61827,6.87242,4.32979,9.13973,10.78971,9.13973A26.09461,26.09461,0,0,0,448.13,73.25768v5.91025c-2.474,1.649-6.6657,3.29808-12.85126,3.29808C423.321,82.466,417.34126,75.8689,417.34126,64.46091Zm9.20927-3.8487h13.95155c0-6.25415-2.26825-8.591-6.66664-8.591C430.606,52.02121,427.03161,53.877,426.55053,60.61221Z"/><path class="cls-11" d="M453.69536,64.66669v-.96218c0-11.6147,7.14773-18.14322,17.25058-18.14322,10.99549,0,17.181,6.39133,17.181,17.86885v.96218c0,11.68236-7.14772,18.07369-17.24963,18.07369C459.74373,82.466,453.69536,75.93749,453.69536,64.66669Zm25.15377.4125v-1.649c0-9.00349-3.50481-11.20221-8.04132-11.20221-4.94806,0-7.83459,3.29809-7.83459,10.9269v1.51186c0,8.86536,3.50574,11.20221,8.04131,11.20221C475.9626,75.8689,478.84913,72.56988,478.84913,65.07919Z"/><polygon class="cls-12" points="267.373 118.241 275.247 118.241 275.247 101.116 282.603 101.116 282.603 98.241 259.903 98.241 259.903 101.116 267.373 101.116 267.373 118.241"/><polygon class="cls-13" points="433.203 98.241 410.504 98.241 410.504 101.115 417.975 101.115 417.975 118.241 425.848 118.241 425.848 101.115 433.203 101.115 433.203 98.241"/><polygon class="cls-14" points="453.474 115.381 442.815 115.381 442.815 109.691 451.257 109.691 451.257 106.818 442.815 106.818 442.815 101.128 453.474 101.128 453.474 98.241 434.942 98.241 434.942 118.254 453.474 118.254 453.474 115.381"/><path class="cls-15" d="M286.33863,118.217l2.175-6.28226h5.9588L296.628,118.217h8.46657l-8.00921-19.97576h-8.26826L280.17351,118.217Zm7.14747-9.15661h-3.97739l1.99766-5.77Z"/><path class="cls-16" d="M354.71116,118.217l2.17568-6.28226h5.95924l2.15527,6.28226h8.46725l-8.0092-19.97576h-8.26752L348.5476,118.217ZM361.86,109.0604h-3.97783l1.99822-5.77Z"/><rect class="cls-17" x="307.45442" y="98.24125" width="7.8629" height="19.99991"/><polygon class="cls-18" points="345.918 98.241 342.229 110.866 338.735 98.241 332.545 98.241 328.809 110.866 325.509 98.241 318.13 98.241 323.882 118.171 331.21 118.171 334.293 107.71 337.23 118.171 344.704 118.171 351.403 98.241 345.918 98.241"/><path class="cls-19" d="M392.15133,110.41642l-7.39821-12.17517h-8.5785v19.98458h4.77777V105.357l7.60371,12.86888h4.07351a4.24819,4.24819,0,0,0,4.24817-4.24818V98.24125h-4.72645Z"/><path class="cls-20" d="M486.82428,109.02894h5.70055v9.21221h3.61534a4.24819,4.24819,0,0,0,4.24818-4.24818V98.24125h-7.86352v7.91551h-5.70055V98.24125h-7.86209v19.9999h7.86209Z"/><path class="cls-21" d="M476.41055,114.47038s-8.60047,1.87915-10.91359.289c0,0-2.56553-1.12178-2.56553-6.288,0-4.01084,1.19208-5.78165,2.4938-6.64885,1.58864-.90455,4.01525-1.41087,10.98532.03506v-3.107s-13.76815-3.107-19.11664,3.25273c-5.34842,6.36051-1.15689,12.10555-.83133,12.50372.3257.39655,4.7697,6.504,19.948,2.70973Z"/></g></g></svg>