<?xml version="1.0" encoding="utf-8"?>
<!-- Generator: Adobe Illustrator 25.0.1, SVG Export Plug-In . SVG Version: 6.00 Build 0)  -->
<svg version="1.1" id="图层_1" xmlns="http://www.w3.org/2000/svg" xmlns:xlink="http://www.w3.org/1999/xlink" x="0px" y="0px"
	 viewBox="0 0 30 30" style="enable-background:new 0 0 30 30;" xml:space="preserve">
<style type="text/css">
	.st0{fill:url(#SVGID_1_);}
</style>
<linearGradient id="SVGID_1_" gradientUnits="userSpaceOnUse" x1="6" y1="15" x2="24" y2="15">
	<stop  offset="0" style="stop-color:#F3D22D"/>
	<stop  offset="1" style="stop-color:#F3B118"/>
</linearGradient>
<path class="st0" d="M15,1c-0.3,0-0.5,0.1-0.7,0.3L6.7,7.4C6.3,7.8,6,8.4,6,9v18c0,1.1,0.9,2,2,2h14c1.1,0,2-0.9,2-2V9
	c0-0.6-0.3-1.2-0.7-1.6l-7.6-6.1C15.5,1.1,15.3,1,15,1z M11.9,13.5h1.4l2.9,4h0.1v-4h1.7v7h0h-1.4l-2.9-4h-0.1v4h-1.7V13.5z"/>
</svg>
